<svg id="visual" viewBox="0 0 900 600" width="900" height="600" xmlns="http://www.w3.org/2000/svg" xmlns:xlink="http://www.w3.org/1999/xlink" version="1.1"><g stroke-width="1" stroke-linejoin="bevel"><path d="M415 310.3L388.8 293.3L407.8 349.8Z" fill="#000000" stroke="#000000"></path><path d="M388.8 293.3L372.5 358.3L407.8 349.8Z" fill="#003659" stroke="#003659"></path><path d="M388.8 293.3L318.3 314.3L372.5 358.3Z" fill="#004266" stroke="#004266"></path><path d="M388.8 293.3L324.5 286.7L318.3 314.3Z" fill="#297ea6" stroke="#297ea6"></path><path d="M442 460.4L462 356.8L407.8 349.8Z" fill="#000000" stroke="#000000"></path><path d="M407.8 349.8L462 356.8L415 310.3Z" fill="#084d73" stroke="#084d73"></path><path d="M324.5 286.7L305.3 295.7L318.3 314.3Z" fill="#002b4d" stroke="#002b4d"></path><path d="M305.3 295.7L310.5 368.8L318.3 314.3Z" fill="#217199" stroke="#217199"></path><path d="M318.3 314.3L310.5 368.8L372.5 358.3Z" fill="#217199" stroke="#217199"></path><path d="M372.5 358.3L442 460.4L407.8 349.8Z" fill="#217199" stroke="#217199"></path><path d="M474 260.7L424.8 238.7L415 310.3Z" fill="#084d73" stroke="#084d73"></path><path d="M415 310.3L424.8 238.7L388.8 293.3Z" fill="#003659" stroke="#003659"></path><path d="M388.8 293.3L354.5 197.2L324.5 286.7Z" fill="#000000" stroke="#000000"></path><path d="M324.5 286.7L282.3 178.2L305.3 295.7Z" fill="#001634" stroke="#001634"></path><path d="M462 356.8L474 260.7L415 310.3Z" fill="#003659" stroke="#003659"></path><path d="M474 260.7L434 215.2L424.8 238.7Z" fill="#001634" stroke="#001634"></path><path d="M424.8 238.7L354.5 197.2L388.8 293.3Z" fill="#084d73" stroke="#084d73"></path><path d="M266.3 401.8L310.5 423.4L310.5 368.8Z" fill="#000000" stroke="#000000"></path><path d="M310.5 368.8L310.5 423.4L372.5 358.3Z" fill="#084d73" stroke="#084d73"></path><path d="M402.8 181.2L354.5 197.2L424.8 238.7Z" fill="#12597f" stroke="#12597f"></path><path d="M517.3 418.4L517.3 359.3L462 356.8Z" fill="#084d73" stroke="#084d73"></path><path d="M462 356.8L543.3 310.7L474 260.7Z" fill="#297ea6" stroke="#297ea6"></path><path d="M200 330.3L266.3 401.8L310.5 368.8Z" fill="#004266" stroke="#004266"></path><path d="M434 215.2L402.8 181.2L424.8 238.7Z" fill="#084d73" stroke="#084d73"></path><path d="M409.8 473.4L442 460.4L372.5 358.3Z" fill="#002040" stroke="#002040"></path><path d="M310.5 423.4L409.8 473.4L372.5 358.3Z" fill="#000000" stroke="#000000"></path><path d="M352.5 486.9L409.8 473.4L310.5 423.4Z" fill="#217199" stroke="#217199"></path><path d="M409.8 473.4L434 472.9L442 460.4Z" fill="#084d73" stroke="#084d73"></path><path d="M517.3 418.4L535.3 368.8L517.3 359.3Z" fill="#217199" stroke="#217199"></path><path d="M517.3 418.4L462 356.8L442 460.4Z" fill="#1a658c" stroke="#1a658c"></path><path d="M517.3 359.3L543.3 310.7L462 356.8Z" fill="#001634" stroke="#001634"></path><path d="M545.5 344.8L543.3 310.7L517.3 359.3Z" fill="#002b4d" stroke="#002b4d"></path><path d="M474 260.7L518.3 231.2L434 215.2Z" fill="#001634" stroke="#001634"></path><path d="M434 215.2L417.8 164.6L402.8 181.2Z" fill="#001634" stroke="#001634"></path><path d="M535.3 368.8L545.5 344.8L517.3 359.3Z" fill="#084d73" stroke="#084d73"></path><path d="M508.3 460.9L517.3 418.4L442 460.4Z" fill="#002b4d" stroke="#002b4d"></path><path d="M606.8 399.4L592.5 303.3L545.5 344.8Z" fill="#003659" stroke="#003659"></path><path d="M543.3 310.7L518.3 231.2L474 260.7Z" fill="#084d73" stroke="#084d73"></path><path d="M440 160.6L417.8 164.6L434 215.2Z" fill="#004266" stroke="#004266"></path><path d="M402.8 181.2L363.5 126.6L354.5 197.2Z" fill="#084d73" stroke="#084d73"></path><path d="M280.3 499.9L352.5 486.9L310.5 423.4Z" fill="#084d73" stroke="#084d73"></path><path d="M409.8 473.4L421.8 521.9L434 472.9Z" fill="#217199" stroke="#217199"></path><path d="M475.3 150.6L440 160.6L434 215.2Z" fill="#003659" stroke="#003659"></path><path d="M278.3 165.6L282.3 178.2L363.5 126.6Z" fill="#003659" stroke="#003659"></path><path d="M354.5 197.2L282.3 178.2L324.5 286.7Z" fill="#217199" stroke="#217199"></path><path d="M305.3 295.7L200 330.3L310.5 368.8Z" fill="#12597f" stroke="#12597f"></path><path d="M282.3 178.2L354.5 197.2L363.5 126.6Z" fill="#084d73" stroke="#084d73"></path><path d="M434 472.9L508.3 460.9L442 460.4Z" fill="#002040" stroke="#002040"></path><path d="M606.8 399.4L545.5 344.8L535.3 368.8Z" fill="#000000" stroke="#000000"></path><path d="M523.5 485.9L508.3 460.9L434 472.9Z" fill="#003659" stroke="#003659"></path><path d="M266.3 401.8L264.3 466.4L310.5 423.4Z" fill="#084d73" stroke="#084d73"></path><path d="M192 264.7L200 330.3L305.3 295.7Z" fill="#217199" stroke="#217199"></path><path d="M266.3 401.8L191 464.4L264.3 466.4Z" fill="#12597f" stroke="#12597f"></path><path d="M475.3 150.6L439 145.1L440 160.6Z" fill="#217199" stroke="#217199"></path><path d="M440 160.6L439 145.1L417.8 164.6Z" fill="#004266" stroke="#004266"></path><path d="M363.5 126.6L402.8 181.2L367.8 124.1Z" fill="#1a658c" stroke="#1a658c"></path><path d="M282.3 178.2L231 205.2L305.3 295.7Z" fill="#004266" stroke="#004266"></path><path d="M518.3 231.2L475.3 150.6L434 215.2Z" fill="#000000" stroke="#000000"></path><path d="M255 160.6L231 205.2L282.3 178.2Z" fill="#297ea6" stroke="#297ea6"></path><path d="M361.8 531.5L409.8 473.4L352.5 486.9Z" fill="#297ea6" stroke="#297ea6"></path><path d="M361.8 531.5L421.8 521.9L409.8 473.4Z" fill="#000000" stroke="#000000"></path><path d="M367.8 124.1L417.8 164.6L439 145.1Z" fill="#1a658c" stroke="#1a658c"></path><path d="M367.8 124.1L402.8 181.2L417.8 164.6Z" fill="#000000" stroke="#000000"></path><path d="M414 61.5L367.8 124.1L439 145.1Z" fill="#12597f" stroke="#12597f"></path><path d="M279.3 99.1L255 160.6L278.3 165.6Z" fill="#004266" stroke="#004266"></path><path d="M231 205.2L192 264.7L305.3 295.7Z" fill="#003659" stroke="#003659"></path><path d="M264.3 466.4L280.3 499.9L310.5 423.4Z" fill="#297ea6" stroke="#297ea6"></path><path d="M155.8 323.3L185 372.8L200 330.3Z" fill="#003659" stroke="#003659"></path><path d="M200 330.3L185 372.8L266.3 401.8Z" fill="#217199" stroke="#217199"></path><path d="M264.3 466.4L251.3 518.5L280.3 499.9Z" fill="#000000" stroke="#000000"></path><path d="M545.5 344.8L592.5 303.3L543.3 310.7Z" fill="#12597f" stroke="#12597f"></path><path d="M543.3 310.7L593.5 276.7L518.3 231.2Z" fill="#217199" stroke="#217199"></path><path d="M518.3 231.2L487.3 142.1L475.3 150.6Z" fill="#002b4d" stroke="#002b4d"></path><path d="M606.8 399.4L535.3 368.8L517.3 418.4Z" fill="#002040" stroke="#002040"></path><path d="M280.3 499.9L361.8 531.5L352.5 486.9Z" fill="#002b4d" stroke="#002b4d"></path><path d="M558.5 200.2L487.3 142.1L518.3 231.2Z" fill="#003659" stroke="#003659"></path><path d="M475.3 150.6L487.3 142.1L439 145.1Z" fill="#003659" stroke="#003659"></path><path d="M307.5 105.1L278.3 165.6L363.5 126.6Z" fill="#12597f" stroke="#12597f"></path><path d="M278.3 165.6L255 160.6L282.3 178.2Z" fill="#002040" stroke="#002040"></path><path d="M156.8 201.2L157.8 251.7L192 264.7Z" fill="#001634" stroke="#001634"></path><path d="M436 541.5L523.5 485.9L434 472.9Z" fill="#297ea6" stroke="#297ea6"></path><path d="M508.3 460.9L594.5 449.4L517.3 418.4Z" fill="#084d73" stroke="#084d73"></path><path d="M592.5 303.3L593.5 276.7L543.3 310.7Z" fill="#297ea6" stroke="#297ea6"></path><path d="M593.5 276.7L558.5 200.2L518.3 231.2Z" fill="#002b4d" stroke="#002b4d"></path><path d="M361.8 531.5L436 541.5L421.8 521.9Z" fill="#003659" stroke="#003659"></path><path d="M421.8 521.9L436 541.5L434 472.9Z" fill="#1a658c" stroke="#1a658c"></path><path d="M157.8 251.7L155.8 323.3L192 264.7Z" fill="#12597f" stroke="#12597f"></path><path d="M192 264.7L155.8 323.3L200 330.3Z" fill="#000000" stroke="#000000"></path><path d="M594.5 449.4L606.8 399.4L517.3 418.4Z" fill="#084d73" stroke="#084d73"></path><path d="M683 295.3L609.8 233.7L593.5 276.7Z" fill="#004266" stroke="#004266"></path><path d="M367.8 124.1L307.5 105.1L363.5 126.6Z" fill="#084d73" stroke="#084d73"></path><path d="M311.3 68.5L307.5 105.1L367.8 124.1Z" fill="#12597f" stroke="#12597f"></path><path d="M239 516.5L251.3 518.5L264.3 466.4Z" fill="#084d73" stroke="#084d73"></path><path d="M280.3 499.9L302.5 560.5L361.8 531.5Z" fill="#001634" stroke="#001634"></path><path d="M361.8 531.5L372.5 600L436 541.5Z" fill="#001634" stroke="#001634"></path><path d="M162.8 409.4L266.3 401.8L185 372.8Z" fill="#000000" stroke="#000000"></path><path d="M120.5 399.8L162.8 409.4L185 372.8Z" fill="#002b4d" stroke="#002b4d"></path><path d="M162.8 409.4L191 464.4L266.3 401.8Z" fill="#002040" stroke="#002040"></path><path d="M156.8 201.2L192 264.7L231 205.2Z" fill="#217199" stroke="#217199"></path><path d="M173.8 174.6L231 205.2L255 160.6Z" fill="#004266" stroke="#004266"></path><path d="M205.8 489.9L239 516.5L264.3 466.4Z" fill="#084d73" stroke="#084d73"></path><path d="M642.8 331.3L593.5 276.7L592.5 303.3Z" fill="#12597f" stroke="#12597f"></path><path d="M593.5 276.7L609.8 233.7L558.5 200.2Z" fill="#12597f" stroke="#12597f"></path><path d="M558.5 200.2L580.5 73.1L487.3 142.1Z" fill="#002040" stroke="#002040"></path><path d="M523.5 485.9L594.5 449.4L508.3 460.9Z" fill="#1a658c" stroke="#1a658c"></path><path d="M554.5 526.5L594.5 449.4L523.5 485.9Z" fill="#002040" stroke="#002040"></path><path d="M594.5 449.4L615.8 408.8L606.8 399.4Z" fill="#1a658c" stroke="#1a658c"></path><path d="M606.8 399.4L642.8 331.3L592.5 303.3Z" fill="#004266" stroke="#004266"></path><path d="M191 464.4L205.8 489.9L264.3 466.4Z" fill="#1a658c" stroke="#1a658c"></path><path d="M609.8 233.7L592.5 193.6L558.5 200.2Z" fill="#003659" stroke="#003659"></path><path d="M201 600L302.5 560.5L251.3 518.5Z" fill="#002040" stroke="#002040"></path><path d="M251.3 518.5L302.5 560.5L280.3 499.9Z" fill="#001634" stroke="#001634"></path><path d="M311.3 68.5L279.3 99.1L307.5 105.1Z" fill="#001634" stroke="#001634"></path><path d="M307.5 105.1L279.3 99.1L278.3 165.6Z" fill="#1a658c" stroke="#1a658c"></path><path d="M554.5 526.5L537.3 528.5L584.8 571.5Z" fill="#297ea6" stroke="#297ea6"></path><path d="M436 541.5L537.3 528.5L523.5 485.9Z" fill="#12597f" stroke="#12597f"></path><path d="M185.8 505.5L205.8 489.9L191 464.4Z" fill="#000000" stroke="#000000"></path><path d="M185.8 505.5L204 500.9L205.8 489.9Z" fill="#12597f" stroke="#12597f"></path><path d="M205.8 489.9L204 500.9L239 516.5Z" fill="#12597f" stroke="#12597f"></path><path d="M201 600L314.3 600L302.5 560.5Z" fill="#297ea6" stroke="#297ea6"></path><path d="M615.8 408.8L642.8 331.3L606.8 399.4Z" fill="#000000" stroke="#000000"></path><path d="M671 212.2L612.8 201.2L609.8 233.7Z" fill="#217199" stroke="#217199"></path><path d="M609.8 233.7L612.8 201.2L592.5 193.6Z" fill="#297ea6" stroke="#297ea6"></path><path d="M512.3 43.5L414 61.5L487.3 142.1Z" fill="#004266" stroke="#004266"></path><path d="M250 71.1L173.8 174.6L255 160.6Z" fill="#1a658c" stroke="#1a658c"></path><path d="M173.8 174.6L156.8 201.2L231 205.2Z" fill="#217199" stroke="#217199"></path><path d="M157.8 251.7L124.5 286.7L155.8 323.3Z" fill="#001634" stroke="#001634"></path><path d="M479.3 600L537.3 528.5L436 541.5Z" fill="#084d73" stroke="#084d73"></path><path d="M537.3 528.5L554.5 526.5L523.5 485.9Z" fill="#004266" stroke="#004266"></path><path d="M594.5 449.4L614.8 462.9L615.8 408.8Z" fill="#084d73" stroke="#084d73"></path><path d="M91.5 288.3L124.5 286.7L61.3 255.7Z" fill="#217199" stroke="#217199"></path><path d="M120.5 399.8L131.8 420.8L162.8 409.4Z" fill="#297ea6" stroke="#297ea6"></path><path d="M407.8 53.5L414 61.5L455 0Z" fill="#084d73" stroke="#084d73"></path><path d="M487.3 142.1L414 61.5L439 145.1Z" fill="#000000" stroke="#000000"></path><path d="M554.5 526.5L614.8 462.9L594.5 449.4Z" fill="#084d73" stroke="#084d73"></path><path d="M615.8 408.8L661 413.8L642.8 331.3Z" fill="#12597f" stroke="#12597f"></path><path d="M407.8 53.5L311.3 68.5L367.8 124.1Z" fill="#004266" stroke="#004266"></path><path d="M107.5 132.6L136.5 184.2L173.8 174.6Z" fill="#12597f" stroke="#12597f"></path><path d="M131.8 420.8L191 464.4L162.8 409.4Z" fill="#002b4d" stroke="#002b4d"></path><path d="M86.3 499.9L185.8 505.5L191 464.4Z" fill="#003659" stroke="#003659"></path><path d="M204 500.9L185.8 505.5L239 516.5Z" fill="#217199" stroke="#217199"></path><path d="M120.5 399.8L185 372.8L155.8 323.3Z" fill="#217199" stroke="#217199"></path><path d="M580.5 73.1L558.5 200.2L592.5 193.6Z" fill="#002040" stroke="#002040"></path><path d="M414 61.5L407.8 53.5L367.8 124.1Z" fill="#1a658c" stroke="#1a658c"></path><path d="M355.8 600L361.8 531.5L302.5 560.5Z" fill="#297ea6" stroke="#297ea6"></path><path d="M355.8 600L372.5 600L361.8 531.5Z" fill="#217199" stroke="#217199"></path><path d="M69.3 341.3L120.5 399.8L155.8 323.3Z" fill="#001634" stroke="#001634"></path><path d="M314.3 600L355.8 600L302.5 560.5Z" fill="#084d73" stroke="#084d73"></path><path d="M372.5 600L420 600L436 541.5Z" fill="#1a658c" stroke="#1a658c"></path><path d="M201 600L251.3 518.5L239 516.5Z" fill="#297ea6" stroke="#297ea6"></path><path d="M173.8 174.6L136.5 184.2L156.8 201.2Z" fill="#297ea6" stroke="#297ea6"></path><path d="M156.8 201.2L93.3 190.2L157.8 251.7Z" fill="#297ea6" stroke="#297ea6"></path><path d="M250 71.1L255 160.6L279.3 99.1Z" fill="#002040" stroke="#002040"></path><path d="M614.8 462.9L661 413.8L615.8 408.8Z" fill="#002040" stroke="#002040"></path><path d="M247 14.5L250 71.1L276.3 0Z" fill="#002b4d" stroke="#002b4d"></path><path d="M311.3 68.5L250 71.1L279.3 99.1Z" fill="#000000" stroke="#000000"></path><path d="M420 600L479.3 600L436 541.5Z" fill="#002b4d" stroke="#002b4d"></path><path d="M61.3 255.7L124.5 286.7L157.8 251.7Z" fill="#297ea6" stroke="#297ea6"></path><path d="M124.5 286.7L69.3 341.3L155.8 323.3Z" fill="#1a658c" stroke="#1a658c"></path><path d="M738.3 338.3L683 295.3L642.8 331.3Z" fill="#217199" stroke="#217199"></path><path d="M642.8 331.3L683 295.3L593.5 276.7Z" fill="#297ea6" stroke="#297ea6"></path><path d="M671 212.2L630.8 153.6L612.8 201.2Z" fill="#002b4d" stroke="#002b4d"></path><path d="M612.8 201.2L630.8 153.6L592.5 193.6Z" fill="#004266" stroke="#004266"></path><path d="M683 295.3L671 212.2L609.8 233.7Z" fill="#217199" stroke="#217199"></path><path d="M69.3 341.3L92.5 412.4L120.5 399.8Z" fill="#1a658c" stroke="#1a658c"></path><path d="M120.5 399.8L92.5 412.4L131.8 420.8Z" fill="#002040" stroke="#002040"></path><path d="M131.8 420.8L86.3 499.9L191 464.4Z" fill="#001634" stroke="#001634"></path><path d="M396.8 0L346.5 19.5L407.8 53.5Z" fill="#217199" stroke="#217199"></path><path d="M407.8 53.5L346.5 19.5L311.3 68.5Z" fill="#002040" stroke="#002040"></path><path d="M538.5 50.5L512.3 43.5L487.3 142.1Z" fill="#084d73" stroke="#084d73"></path><path d="M580.5 73.1L538.5 50.5L487.3 142.1Z" fill="#003659" stroke="#003659"></path><path d="M574.5 600L584.8 571.5L537.3 528.5Z" fill="#217199" stroke="#217199"></path><path d="M554.5 526.5L646 517.5L614.8 462.9Z" fill="#297ea6" stroke="#297ea6"></path><path d="M614.8 462.9L700.3 480.9L661 413.8Z" fill="#004266" stroke="#004266"></path><path d="M91.5 288.3L69.3 341.3L124.5 286.7Z" fill="#002b4d" stroke="#002b4d"></path><path d="M630.8 82.5L580.5 73.1L630.8 153.6Z" fill="#000000" stroke="#000000"></path><path d="M630.8 153.6L580.5 73.1L592.5 193.6Z" fill="#12597f" stroke="#12597f"></path><path d="M584.8 571.5L646 517.5L554.5 526.5Z" fill="#1a658c" stroke="#1a658c"></path><path d="M712.3 255.7L705 258.7L683 295.3Z" fill="#297ea6" stroke="#297ea6"></path><path d="M107.5 132.6L93.3 190.2L136.5 184.2Z" fill="#1a658c" stroke="#1a658c"></path><path d="M136.5 184.2L93.3 190.2L156.8 201.2Z" fill="#217199" stroke="#217199"></path><path d="M91.5 288.3L61.3 255.7L69.3 341.3Z" fill="#002040" stroke="#002040"></path><path d="M683 295.3L705 258.7L671 212.2Z" fill="#217199" stroke="#217199"></path><path d="M695 152.6L650.8 120.1L630.8 153.6Z" fill="#003659" stroke="#003659"></path><path d="M712.3 255.7L683 295.3L738.3 338.3Z" fill="#217199" stroke="#217199"></path><path d="M455 0L396.8 0L407.8 53.5Z" fill="#1a658c" stroke="#1a658c"></path><path d="M455 0L414 61.5L512.3 43.5Z" fill="#004266" stroke="#004266"></path><path d="M396.8 0L325.5 0L346.5 19.5Z" fill="#000000" stroke="#000000"></path><path d="M346.5 19.5L325.5 0L311.3 68.5Z" fill="#001634" stroke="#001634"></path><path d="M153.8 72.1L107.5 132.6L173.8 174.6Z" fill="#002b4d" stroke="#002b4d"></path><path d="M185.8 505.5L201 600L239 516.5Z" fill="#12597f" stroke="#12597f"></path><path d="M146.8 600L201 600L185.8 505.5Z" fill="#002040" stroke="#002040"></path><path d="M69.3 341.3L68.3 420.4L92.5 412.4Z" fill="#297ea6" stroke="#297ea6"></path><path d="M92.5 412.4L86.3 499.9L131.8 420.8Z" fill="#12597f" stroke="#12597f"></path><path d="M514.3 0L512.3 43.5L538.5 50.5Z" fill="#084d73" stroke="#084d73"></path><path d="M514.3 0L455 0L512.3 43.5Z" fill="#12597f" stroke="#12597f"></path><path d="M93.3 190.2L61.3 255.7L157.8 251.7Z" fill="#084d73" stroke="#084d73"></path><path d="M69.3 341.3L26.3 386.8L68.3 420.4Z" fill="#217199" stroke="#217199"></path><path d="M584.8 571.5L656.8 600L646 517.5Z" fill="#217199" stroke="#217199"></path><path d="M479.3 600L574.5 600L537.3 528.5Z" fill="#000000" stroke="#000000"></path><path d="M738.3 338.3L642.8 331.3L661 413.8Z" fill="#004266" stroke="#004266"></path><path d="M705 258.7L712.3 255.7L671 212.2Z" fill="#002b4d" stroke="#002b4d"></path><path d="M695 152.6L630.8 153.6L671 212.2Z" fill="#12597f" stroke="#12597f"></path><path d="M153.8 72.1L173.8 174.6L250 71.1Z" fill="#004266" stroke="#004266"></path><path d="M0 196.6L0 256.7L61.3 255.7Z" fill="#1a658c" stroke="#1a658c"></path><path d="M709 460.4L713.3 419.8L661 413.8Z" fill="#000000" stroke="#000000"></path><path d="M276.3 0L250 71.1L311.3 68.5Z" fill="#000000" stroke="#000000"></path><path d="M646 517.5L676 505.9L614.8 462.9Z" fill="#12597f" stroke="#12597f"></path><path d="M679 600L676 505.9L646 517.5Z" fill="#217199" stroke="#217199"></path><path d="M325.5 0L276.3 0L311.3 68.5Z" fill="#002040" stroke="#002040"></path><path d="M173.8 52.5L153.8 72.1L250 71.1Z" fill="#297ea6" stroke="#297ea6"></path><path d="M650.8 120.1L630.8 82.5L630.8 153.6Z" fill="#004266" stroke="#004266"></path><path d="M592.5 0L514.3 0L538.5 50.5Z" fill="#12597f" stroke="#12597f"></path><path d="M247 14.5L173.8 52.5L250 71.1Z" fill="#001634" stroke="#001634"></path><path d="M68.3 420.4L86.3 499.9L92.5 412.4Z" fill="#1a658c" stroke="#1a658c"></path><path d="M700.3 480.9L709 460.4L661 413.8Z" fill="#003659" stroke="#003659"></path><path d="M592.5 0L538.5 50.5L580.5 73.1Z" fill="#001634" stroke="#001634"></path><path d="M676 505.9L700.3 480.9L614.8 462.9Z" fill="#12597f" stroke="#12597f"></path><path d="M754.5 332.3L738.3 338.3L760.5 362.8Z" fill="#000000" stroke="#000000"></path><path d="M713.3 419.8L738.3 338.3L661 413.8Z" fill="#1a658c" stroke="#1a658c"></path><path d="M650.8 120.1L641 81.5L630.8 82.5Z" fill="#004266" stroke="#004266"></path><path d="M628.8 0L592.5 0L580.5 73.1Z" fill="#1a658c" stroke="#1a658c"></path><path d="M699 110.1L641 81.5L650.8 120.1Z" fill="#003659" stroke="#003659"></path><path d="M754.5 332.3L731.3 251.2L712.3 255.7Z" fill="#002b4d" stroke="#002b4d"></path><path d="M712.3 255.7L731.3 251.2L671 212.2Z" fill="#297ea6" stroke="#297ea6"></path><path d="M769.3 199.6L695 152.6L671 212.2Z" fill="#217199" stroke="#217199"></path><path d="M0 473.9L77.5 516.9L86.3 499.9Z" fill="#084d73" stroke="#084d73"></path><path d="M86.3 499.9L84.3 537.5L185.8 505.5Z" fill="#084d73" stroke="#084d73"></path><path d="M84.3 537.5L146.8 600L185.8 505.5Z" fill="#000000" stroke="#000000"></path><path d="M0 362.3L26.3 386.8L69.3 341.3Z" fill="#000000" stroke="#000000"></path><path d="M68.3 420.4L0 473.9L86.3 499.9Z" fill="#001634" stroke="#001634"></path><path d="M103.5 82.1L107.5 132.6L153.8 72.1Z" fill="#002040" stroke="#002040"></path><path d="M103.5 82.1L94.3 106.1L107.5 132.6Z" fill="#001634" stroke="#001634"></path><path d="M107.5 132.6L29.3 143.6L93.3 190.2Z" fill="#217199" stroke="#217199"></path><path d="M0 256.7L0 362.3L69.3 341.3Z" fill="#12597f" stroke="#12597f"></path><path d="M760.5 362.8L738.3 338.3L713.3 419.8Z" fill="#000000" stroke="#000000"></path><path d="M738.3 338.3L754.5 332.3L712.3 255.7Z" fill="#001634" stroke="#001634"></path><path d="M73.5 556.5L84.3 537.5L77.5 516.9Z" fill="#004266" stroke="#004266"></path><path d="M77.5 516.9L84.3 537.5L86.3 499.9Z" fill="#002040" stroke="#002040"></path><path d="M89.5 14.5L103.5 82.1L153.8 72.1Z" fill="#000000" stroke="#000000"></path><path d="M139.5 0L153.8 72.1L173.8 52.5Z" fill="#12597f" stroke="#12597f"></path><path d="M203 0L173.8 52.5L247 14.5Z" fill="#000000" stroke="#000000"></path><path d="M276.3 0L203 0L247 14.5Z" fill="#003659" stroke="#003659"></path><path d="M777.5 421.4L760.5 362.8L713.3 419.8Z" fill="#297ea6" stroke="#297ea6"></path><path d="M768.3 441.4L713.3 419.8L709 460.4Z" fill="#001634" stroke="#001634"></path><path d="M695 152.6L699 110.1L650.8 120.1Z" fill="#000000" stroke="#000000"></path><path d="M628.8 0L580.5 73.1L630.8 82.5Z" fill="#001634" stroke="#001634"></path><path d="M734.3 85.1L699 110.1L695 152.6Z" fill="#1a658c" stroke="#1a658c"></path><path d="M769.3 199.6L671 212.2L731.3 251.2Z" fill="#002b4d" stroke="#002b4d"></path><path d="M628.8 0L630.8 82.5L641 81.5Z" fill="#1a658c" stroke="#1a658c"></path><path d="M574.5 600L656.8 600L584.8 571.5Z" fill="#000000" stroke="#000000"></path><path d="M676 505.9L749.5 536.5L700.3 480.9Z" fill="#001634" stroke="#001634"></path><path d="M786.5 466.9L768.3 441.4L709 460.4Z" fill="#004266" stroke="#004266"></path><path d="M0 256.7L69.3 341.3L61.3 255.7Z" fill="#12597f" stroke="#12597f"></path><path d="M0 584.5L73.5 556.5L77.5 516.9Z" fill="#003659" stroke="#003659"></path><path d="M0 414.8L68.3 420.4L26.3 386.8Z" fill="#003659" stroke="#003659"></path><path d="M84.3 537.5L110.5 600L146.8 600Z" fill="#002040" stroke="#002040"></path><path d="M73.5 556.5L110.5 600L84.3 537.5Z" fill="#003659" stroke="#003659"></path><path d="M29.3 143.6L107.5 132.6L94.3 106.1Z" fill="#12597f" stroke="#12597f"></path><path d="M0 196.6L61.3 255.7L93.3 190.2Z" fill="#12597f" stroke="#12597f"></path><path d="M0 362.3L0 414.8L26.3 386.8Z" fill="#004266" stroke="#004266"></path><path d="M786.5 466.9L709 460.4L700.3 480.9Z" fill="#1a658c" stroke="#1a658c"></path><path d="M203 0L155.8 0L173.8 52.5Z" fill="#1a658c" stroke="#1a658c"></path><path d="M0 414.8L0 429.4L68.3 420.4Z" fill="#297ea6" stroke="#297ea6"></path><path d="M19.3 70.5L94.3 106.1L103.5 82.1Z" fill="#297ea6" stroke="#297ea6"></path><path d="M19.3 70.5L29.3 143.6L94.3 106.1Z" fill="#002040" stroke="#002040"></path><path d="M656.8 600L679 600L646 517.5Z" fill="#1a658c" stroke="#1a658c"></path><path d="M768.3 441.4L777.5 421.4L713.3 419.8Z" fill="#297ea6" stroke="#297ea6"></path><path d="M782.5 232.7L731.3 251.2L803.8 302.3Z" fill="#297ea6" stroke="#297ea6"></path><path d="M782.5 232.7L769.3 199.6L731.3 251.2Z" fill="#001634" stroke="#001634"></path><path d="M731.3 251.2L754.5 332.3L803.8 302.3Z" fill="#004266" stroke="#004266"></path><path d="M734.3 85.1L711.3 86.5L699 110.1Z" fill="#003659" stroke="#003659"></path><path d="M699 110.1L711.3 86.5L641 81.5Z" fill="#000000" stroke="#000000"></path><path d="M662 0L628.8 0L641 81.5Z" fill="#003659" stroke="#003659"></path><path d="M803.8 302.3L754.5 332.3L760.5 362.8Z" fill="#001634" stroke="#001634"></path><path d="M0 196.2L0 196.6L93.3 190.2Z" fill="#297ea6" stroke="#297ea6"></path><path d="M29.3 143.6L0 196.2L93.3 190.2Z" fill="#000000" stroke="#000000"></path><path d="M155.8 0L139.5 0L173.8 52.5Z" fill="#002b4d" stroke="#002b4d"></path><path d="M0 429.4L0 473.9L68.3 420.4Z" fill="#002040" stroke="#002040"></path><path d="M73.5 556.5L47.3 600L110.5 600Z" fill="#001634" stroke="#001634"></path><path d="M819.8 386.8L803.8 302.3L760.5 362.8Z" fill="#003659" stroke="#003659"></path><path d="M768.3 441.4L786.5 466.9L777.5 421.4Z" fill="#001634" stroke="#001634"></path><path d="M679 600L749.5 536.5L676 505.9Z" fill="#217199" stroke="#217199"></path><path d="M808.8 123.6L734.3 85.1L695 152.6Z" fill="#1a658c" stroke="#1a658c"></path><path d="M711.3 86.5L662 0L641 81.5Z" fill="#004266" stroke="#004266"></path><path d="M808.8 123.6L695 152.6L769.3 199.6Z" fill="#084d73" stroke="#084d73"></path><path d="M749.5 536.5L786.5 466.9L700.3 480.9Z" fill="#002b4d" stroke="#002b4d"></path><path d="M777.5 421.4L819.8 386.8L760.5 362.8Z" fill="#002b4d" stroke="#002b4d"></path><path d="M703.3 0L662 0L711.3 86.5Z" fill="#002b4d" stroke="#002b4d"></path><path d="M139.5 0L89.5 14.5L153.8 72.1Z" fill="#002040" stroke="#002040"></path><path d="M29.3 143.6L0 93.1L0 196.2Z" fill="#217199" stroke="#217199"></path><path d="M0 584.5L47.3 600L73.5 556.5Z" fill="#12597f" stroke="#12597f"></path><path d="M864.8 420.4L819.8 386.8L777.5 421.4Z" fill="#003659" stroke="#003659"></path><path d="M749.5 536.5L823.8 519.9L786.5 466.9Z" fill="#004266" stroke="#004266"></path><path d="M786.5 466.9L864.8 420.4L777.5 421.4Z" fill="#002040" stroke="#002040"></path><path d="M679 600L759.3 558.5L749.5 536.5Z" fill="#12597f" stroke="#12597f"></path><path d="M139.5 0L80.3 0L89.5 14.5Z" fill="#12597f" stroke="#12597f"></path><path d="M89.5 14.5L19.3 70.5L103.5 82.1Z" fill="#12597f" stroke="#12597f"></path><path d="M80.3 0L19.3 70.5L89.5 14.5Z" fill="#002b4d" stroke="#002b4d"></path><path d="M803.8 302.3L827.8 241.2L782.5 232.7Z" fill="#297ea6" stroke="#297ea6"></path><path d="M782.5 232.7L825.5 210.2L769.3 199.6Z" fill="#002040" stroke="#002040"></path><path d="M857.8 264.7L827.8 241.2L803.8 302.3Z" fill="#000000" stroke="#000000"></path><path d="M19.3 70.5L0 93.1L29.3 143.6Z" fill="#003659" stroke="#003659"></path><path d="M827.8 241.2L825.5 210.2L782.5 232.7Z" fill="#217199" stroke="#217199"></path><path d="M784.5 76.5L703.3 0L734.3 85.1Z" fill="#001634" stroke="#001634"></path><path d="M734.3 85.1L703.3 0L711.3 86.5Z" fill="#000000" stroke="#000000"></path><path d="M900 200.6L825.5 192.6L825.5 210.2Z" fill="#004266" stroke="#004266"></path><path d="M825.5 210.2L825.5 192.6L769.3 199.6Z" fill="#000000" stroke="#000000"></path><path d="M679 600L758.3 600L759.3 558.5Z" fill="#004266" stroke="#004266"></path><path d="M759.3 558.5L823.8 519.9L749.5 536.5Z" fill="#297ea6" stroke="#297ea6"></path><path d="M0 473.9L0 584.5L77.5 516.9Z" fill="#002b4d" stroke="#002b4d"></path><path d="M825.5 192.6L808.8 123.6L769.3 199.6Z" fill="#001634" stroke="#001634"></path><path d="M808.8 123.6L784.5 76.5L734.3 85.1Z" fill="#004266" stroke="#004266"></path><path d="M0 584.5L0 600L47.3 600Z" fill="#001634" stroke="#001634"></path><path d="M900 334.3L803.8 302.3L819.8 386.8Z" fill="#12597f" stroke="#12597f"></path><path d="M900 334.3L857.8 264.7L803.8 302.3Z" fill="#002040" stroke="#002040"></path><path d="M827.8 241.2L900 226.2L825.5 210.2Z" fill="#084d73" stroke="#084d73"></path><path d="M818.8 79.1L814.5 81.1L808.8 123.6Z" fill="#002040" stroke="#002040"></path><path d="M80.3 0L0 46.5L19.3 70.5Z" fill="#002b4d" stroke="#002b4d"></path><path d="M19.3 70.5L0 46.5L0 93.1Z" fill="#297ea6" stroke="#297ea6"></path><path d="M816.5 600L823.8 519.9L759.3 558.5Z" fill="#000000" stroke="#000000"></path><path d="M823.8 519.9L864.8 420.4L786.5 466.9Z" fill="#004266" stroke="#004266"></path><path d="M818.8 79.1L808.8 123.6L900 95.1Z" fill="#001634" stroke="#001634"></path><path d="M808.8 123.6L814.5 81.1L784.5 76.5Z" fill="#004266" stroke="#004266"></path><path d="M784.5 76.5L810.5 0L703.3 0Z" fill="#217199" stroke="#217199"></path><path d="M900 95.1L808.8 123.6L825.5 192.6Z" fill="#1a658c" stroke="#1a658c"></path><path d="M814.5 81.1L818.8 79.1L784.5 76.5Z" fill="#002040" stroke="#002040"></path><path d="M80.3 0L0 0L0 46.5Z" fill="#001634" stroke="#001634"></path><path d="M758.3 600L816.5 600L759.3 558.5Z" fill="#084d73" stroke="#084d73"></path><path d="M900 501.9L900 403.4L864.8 420.4Z" fill="#002040" stroke="#002040"></path><path d="M900 345.8L900 334.3L819.8 386.8Z" fill="#002040" stroke="#002040"></path><path d="M857.8 264.7L900 226.2L827.8 241.2Z" fill="#000000" stroke="#000000"></path><path d="M900 345.8L819.8 386.8L864.8 420.4Z" fill="#1a658c" stroke="#1a658c"></path><path d="M900 403.4L900 345.8L864.8 420.4Z" fill="#003659" stroke="#003659"></path><path d="M900 501.9L864.8 420.4L823.8 519.9Z" fill="#084d73" stroke="#084d73"></path><path d="M900 334.3L900 232.7L857.8 264.7Z" fill="#004266" stroke="#004266"></path><path d="M900 232.7L900 226.2L857.8 264.7Z" fill="#000000" stroke="#000000"></path><path d="M900 226.2L900 200.6L825.5 210.2Z" fill="#297ea6" stroke="#297ea6"></path><path d="M816.5 600L869.8 544.5L823.8 519.9Z" fill="#12597f" stroke="#12597f"></path><path d="M818.8 79.1L810.5 0L784.5 76.5Z" fill="#297ea6" stroke="#297ea6"></path><path d="M867.8 30.5L810.5 0L818.8 79.1Z" fill="#001634" stroke="#001634"></path><path d="M900 507.5L900 501.9L823.8 519.9Z" fill="#002b4d" stroke="#002b4d"></path><path d="M869.8 544.5L900 507.5L823.8 519.9Z" fill="#001634" stroke="#001634"></path><path d="M816.5 600L874.8 600L869.8 544.5Z" fill="#002b4d" stroke="#002b4d"></path><path d="M869.8 544.5L900 600L900 507.5Z" fill="#001634" stroke="#001634"></path><path d="M900 200.6L900 95.1L825.5 192.6Z" fill="#002b4d" stroke="#002b4d"></path><path d="M900 95.1L867.8 30.5L818.8 79.1Z" fill="#297ea6" stroke="#297ea6"></path><path d="M874.8 600L900 600L869.8 544.5Z" fill="#003659" stroke="#003659"></path><path d="M900 95.1L900 46.5L867.8 30.5Z" fill="#12597f" stroke="#12597f"></path><path d="M867.8 30.5L877.8 0L810.5 0Z" fill="#1a658c" stroke="#1a658c"></path><path d="M900 0L877.8 0L867.8 30.5Z" fill="#000000" stroke="#000000"></path><path d="M900 46.5L900 0L867.8 30.5Z" fill="#297ea6" stroke="#297ea6"></path></g></svg>