<svg id="visual" viewBox="0 0 900 600" width="900" height="600" xmlns="http://www.w3.org/2000/svg" xmlns:xlink="http://www.w3.org/1999/xlink" version="1.1"><path d="M0 187L82 193L164 127L245 199L327 253L409 181L491 193L573 157L655 133L736 91L818 79L900 211L900 0L818 0L736 0L655 0L573 0L491 0L409 0L327 0L245 0L164 0L82 0L0 0Z" fill="#001122"></path><path d="M0 241L82 229L164 187L245 265L327 289L409 235L491 241L573 205L655 223L736 133L818 127L900 295L900 209L818 77L736 89L655 131L573 155L491 191L409 179L327 251L245 197L164 125L82 191L0 185Z" fill="#3a4452"></path><path d="M0 379L82 403L164 397L245 415L327 397L409 373L491 367L573 373L655 403L736 409L818 349L900 427L900 293L818 125L736 131L655 221L573 203L491 239L409 233L327 287L245 263L164 185L82 227L0 239Z" fill="#777d88"></path><path d="M0 487L82 535L164 463L245 481L327 505L409 457L491 487L573 445L655 487L736 529L818 475L900 469L900 425L818 347L736 407L655 401L573 371L491 365L409 371L327 395L245 413L164 395L82 401L0 377Z" fill="#b9bcc2"></path><path d="M0 601L82 601L164 601L245 601L327 601L409 601L491 601L573 601L655 601L736 601L818 601L900 601L900 467L818 473L736 527L655 485L573 443L491 485L409 455L327 503L245 479L164 461L82 533L0 485Z" fill="#ffffff"></path></svg>